<?xml version="1.0" encoding="UTF-8"?>
<svg width="132px" height="40px" viewBox="0 0 132 40" version="1.1" xmlns="http://www.w3.org/2000/svg" xmlns:xlink="http://www.w3.org/1999/xlink">
    <!-- Generator: Sketch 51.1 (57501) - http://www.bohemiancoding.com/sketch -->
    <title>a</title>
    <desc>Created with Sketch.</desc>
    <defs></defs>
    <g id="Data-Layer-Priority-Experiment" stroke="none" stroke-width="1" fill="none" fill-rule="evenodd">
        <g id="tomo-gray-500" fill="#FFFFFF" fill-rule="nonzero">
            <path d="M22,37.8 C19.82,39.06 16.56,39.92 13.67,39.92 C7.42,39.92 3.97,36.42 3.97,29.12 L3.97,20.05 L0,20.05 L0,13.15 L4.07,13.15 L4.07,7.45 L12.35,6.03 L12.35,13.15 L20.53,13.15 L20.53,20.05 L12.35,20.05 L12.35,28.15 C12.35,31.07 13.53,32.3 15.65,32.3 C17.3,32.3 18.59,31.73 19.77,31.12 L22,37.8 Z M24,26.13 C24,18.56 29.63,12.33 38.2,12.33 C46.8,12.33 52.43,18.56 52.43,26.13 C52.43,33.75 46.81,39.89 38.19,39.89 C29.59,39.89 23.99,33.69 23.99,26.09 L24,26.13 Z M99.34,23.53 L99.34,39.87 L91,39.87 L91,25.23 C91,21.69 89,20.19 86.64,20.19 C83.9,20.19 81.77,21.99 81.77,25.49 L81.77,39.79 L73.44,39.79 L73.44,25.2 C73.44,21.94 71.5,20.15 68.94,20.15 C66.4,20.15 64.22,21.95 64.22,25.45 L64.22,39.8 L55.9,39.8 L55.9,13.1 L64.03,13.1 L64.03,16.84 C65.5,13.97 68.81,12.28 72.13,12.34 C74.96,12.38 77.89,13.59 79.36,16.79 C81.39,13.69 84.99,12.29 88.53,12.29 C94.16,12.29 99.36,15.89 99.36,23.49 L99.34,23.53 Z M102.79,26.13 C102.79,18.56 108.39,12.33 116.99,12.33 C125.59,12.33 131.19,18.56 131.19,26.13 C131.19,33.75 125.53,39.89 116.91,39.89 C108.34,39.89 102.71,33.69 102.71,26.09 L102.79,26.13 Z M48.2,7 L28.26,9.66 L28.26,3.44 L48.2,0 L48.2,7 Z M122.92,26.1 C122.92,22.84 120.28,20.2 117.02,20.2 C113.77,20.2 111.12,22.84 111.12,26.1 C111.12,29.5 113.74,32.1 117,32.1 C120.32,32.1 122.92,29.5 122.92,26.1 Z M44.12,26.1 C44.12,22.84 41.47,20.2 38.22,20.2 C34.97,20.2 32.32,22.84 32.32,26.1 C32.32,29.5 34.92,32.1 38.19,32.1 C41.49,32.1 44.09,29.5 44.09,26.1 L44.12,26.1 Z" id="a"></path>
        </g>
    </g>
</svg>